<?xml version="1.0" encoding="UTF-8"?>
<svg viewBox="0 0 217.81886 310.38968" xmlns="http://www.w3.org/2000/svg">
 <g transform="translate(-1550.3 -1495.4)">
  <path d="m1659.3 1495.5c-0.9683 0.01-1.9372 0.021-2.9063 0.062-44.496 0.284-84.418 39.853-84.531 84.469-0.5035 10.517 0.1466 21.042 0.031 31.563h-21.438c0.5678 46.226-1.1556 92.56 0.9062 138.72 4.4359 29.724 31.126 56.603 62.25 55.156 34.078-0.066 68.262 1.0541 102.28-0.6876 31.934-5.5024 54.359-38.293 51.938-70.031 0.3669-41.041-0.035-82.083 0.125-123.12-7.1142-0.1818-14.23 0.139-21.344-0.094 0.5401-24.99 1.715-52.307-12.531-73.969-15.406-25.706-44.767-42.255-74.781-42.062zm0.4062 35.688c25.281 0.3463 50.259 21.283 49.531 47.625 0.5019 10.922 0.8363 21.85 1.0626 32.781-34.011-0.02-68.021 0.053-102.03-0.063 0.1057-17.098-4.4827-35.793 4.875-51.187 8.4966-16.311 25.48-28.793 44.125-29.125 0.8153-0.032 1.622-0.043 2.4375-0.031z" fill="#fff" opacity=".98"/>
  <path d="m1657.1 1501.5c-44.13 1.1108-79.312 37.031-79.312 81.438v34.625h-21.344v117.75h0.031c-0.031 0.8505-0.031 1.7033-0.031 2.5625 0 34.197 25.051 61.719 56.187 61.719h93.094c31.136 0 56.219-27.522 56.219-61.719 0-0.859-0.032-1.7123-0.063-2.5625h0.063v-117.75h-21.313v-34.625c0-45.111-36.295-81.438-81.406-81.438-0.7049 0-1.4245-0.018-2.125 0zm-0.375 23.75c0.5355-0.013 1.0865 0 1.625 0 25.79-0.6025 51.139 18.477 56.406 43.812 0.8967 16.166 1.4017 32.319 1.6876 48.5h-114.31c-0.027-7.7372-0.063-15.456-0.2187-23.188-6.5279-33.085 21.075-68.332 54.812-69.125zm2.375 135.38c1.2168 0 2.4472 0.095 3.6875 0.2812 13.23 1.9847 22.36 14.301 20.375 27.531-0.9138 6.092-4.0565 11.334-8.4375 15l8.4688 53.094h-48l8.4374-53.094c-6.2414-5.2417-9.7038-13.536-8.4062-22.188 1.7986-11.99 12.112-20.593 23.875-20.625z" opacity=".98"/>
 </g>
</svg>
